<?xml version="1.0" encoding="UTF-8"?>
<svg viewBox="0 0 776.21082 693.92157" xmlns="http://www.w3.org/2000/svg">
 <g transform="translate(.33638 -92.007)">
  <path d="m339.69 779.15c0.1795-9.7799-1.6084-25.938-4.2046-38-7.2922-33.88-7.2574-33.651-7.2885-48.058-0.028-12.951 0.1446-14.304 2.1923-17.18 3.0695-4.3106 8.0938-7.1904 17.059-9.7778 4.7951-1.3839 7.6281-2.7183 7.6281-3.5931 0-1.9912-5.9285-2.3232-9.5173-0.53289-2.9058 1.4496-2.9827 1.4244-2.9827-0.97519 0-3.9305 3.7901-10.353 6.7804-11.49 4.8581-1.847 9.2893-0.16895 14.73 5.5781 5.5318 5.8437 8.5027 12.586 8.4949 19.279-0.0058 4.9956 0.2178 4.9078-9.5049 3.7333-5.5557-0.67113-20.034-0.75809-23.5-0.14115-0.825 0.14686-3.028 1.0754-4.8956 2.0634l-3.3955 1.7964 0.6422 13.149c0.3533 7.232 1.5398 17.649 2.6368 23.149 5.6858 28.507 7.0521 38.829 6.9515 52.517-0.0551 7.4937-0.5214 14.268-1.0363 15.054-0.6171 0.94204-0.8861-1.2971-0.7893-6.571zm234.89-18.679c-11.074-1.6626-31.05-5.8479-37.685-7.8959-12.66-3.9074-24.809-8.1764-25.765-9.0534-0.5225-0.47961-1.5397-0.87202-2.2604-0.87202s-4.7932-1.7218-9.05-3.8263c-32.211-15.924-53.788-33.9-72.013-59.996-20.674-29.601-35.539-75.773-39.294-122.05-1.2353-15.225-1.2639-15.345-3.0926-13-1.0152 1.302-2.1371 3.4923-2.4931 4.8673-1.8263 7.0526-20.924 40.662-26.037 45.821-0.7202 0.72678-1.3116 1.6268-1.3142 2s-1.2684 2.0286-2.8131 3.6786-3.2301 3.7454-3.7454 4.6563-3.6368 4.6854-6.9368 8.3876-7.7448 8.6944-9.8774 11.094-4.495 4.3624-5.25 4.3624-1.3726 0.52025-1.3726 1.1561c0 1.189-9.425 10.109-13.656 12.924-1.3062 0.86913-2.9304 2.309-3.6093 3.1997-2.0087 2.6353-16.072 13.72-17.407 13.72-0.6756 0-1.5882 0.62026-2.028 1.3784-0.9458 1.6301-23.328 18.068-27.633 20.294-1.6382 0.84714-3.816 2.3204-4.8395 3.274s-3.0909 2.3675-4.5941 3.1421-2.9581 1.6796-3.2331 2.011c-0.8183 0.98639-9.1656 5.7392-13.98 7.96-2.4639 1.1366-4.7288 2.4693-5.033 2.9616-0.6703 1.0844-13.928 7.1798-19.487 8.9592-2.2 0.70421-4.45 1.6281-5 2.0531-1.0995 0.84954-13.245 4.5721-18 5.517-8.0493 1.5994-10.861 1.8382-22 1.8685-9.8072 0.02663-13.366-0.39186-19.475-2.2901-9.277-2.8828-15.88-6.1844-20.525-10.263-6.0095-5.2764-13.5-17.861-13.5-22.68 0-1.0332-0.714-3.3097-1.5867-5.059-2.1012-4.212-3.3652-23.179-2.3477-35.229 1.3166-15.594 7.8209-43.329 13.505-57.588 1.6846-4.2256 1.7876-4.4778 6.4601-15.81 8.4739-20.551 25.871-51.73 25.946-46.5 0.0118 0.825-1.3746 4.425-3.0808 8s-4.8962 10.55-7.0888 15.5-4.804 10.8-5.8031 13c-9.4379 20.782-16.524 42.434-18.819 57.5-1.0356 6.8002-0.6257 20.93 0.7542 26 0.6738 2.475 2.4255 6.9847 3.8927 10.022 2.234 4.6238 3.7757 6.229 9.4822 9.8726 12.937 8.2604 28.197 11.662 45.186 10.071 10.066-0.94246 22.706-3.4698 25.898-5.1786 1.1558-0.61857 2.1015-1.017 2.1015-0.88539s1.2668-0.24236 2.8151-0.83102 3.2697-1.0703 3.8254-1.0703c1.4077 0 21.985-10.115 29.916-14.705 30.337-17.559 53.942-34.024 75.693-52.796 18.279-15.776 45.428-44.463 55.045-58.165 2.159-3.0759 2.1923-3.5161 1.1732-15.5-2.6987-31.734-6.803-62.029-12.577-92.834-6.2118-33.141-15.8-72.322-25.452-104-2.2622-7.425-4.5667-15.075-5.1211-17s-1.6635-4.9036-2.4646-6.6191c-1.3541-2.8999-1.2139-3.954 1.996-15 3.3261-11.446 5.3566-20.673 5.8951-26.789 0.2402-2.7279 0.5303-2.4804 4.6875 4 2.4374 3.7993 7.0547 12.072 10.261 18.385 13.376 26.337 25.226 62.479 33.16 101.14 5.1183 24.941 12.555 72.859 15.115 97.386 0.3443 3.3 0.7989 6.675 1.01 7.5 0.2112 0.825 0.662 4.2 1.0018 7.5s1.2588 11.175 2.0425 17.5 1.9241 15.55 2.5345 20.5 1.337 9.675 1.6146 10.5 2.1876-3.225 4.2444-9c4.5281-12.714 11.343-26.111 16.78-32.989 0.6571-0.83116 3.0259-3.9862 5.2639-7.0112 6.9351-9.3739 12.21-14.968 21.328-22.622 22.401-18.803 45.329-31.344 109.46-59.871 3.4375-1.529 6.25-3.4085 6.25-4.1767s-1.0715-3.5192-2.381-6.1134c-3.8794-7.6851-8.6113-23.824-9.2701-31.617-1.1401-13.488 2.6463-26.073 10.832-36.003 6.9896-8.4796 17.041-12.073 31.706-11.334 11.358 0.57192 17.436 2.3259 25.845 7.4579 6.5077 3.9717 18.999 15.478 25.768 23.736 2.2 2.684 5.0198 6.0419 6.2662 7.4619 6.9888 7.9624 16.234 20.132 16.234 21.37 0 5.0247-11.593 34.455-14.38 36.507-0.6159 0.45336-6.5198 1.8378-13.12 3.0765-16.243 3.0486-33.332 7.3696-43 10.873l-8 2.8989-0.5 8.4281c-0.4375 7.3746-0.6563 8.1551-1.75 6.2439-0.6875-1.2013-1.25-2.9112-1.25-3.7997 0-2.6909-2.9503-7.5161-4.5956-7.5161-2.2192 0-24.837 7.8924-39.968 13.947-17.988 7.1975-46.763 21.529-60.285 30.025-18.824 11.828-40.151 27.797-40.151 30.064 0 0.99401 4.9259 1.6567 25 3.3634 22.422 1.9064 30.365 2.4237 48.07 3.131 7.9363 0.31707 16.68 0.75985 19.43 0.98396 24.406 1.989 121.17 1.3714 162-1.0339 19.162-1.1288 54.294-3.5556 57.5-3.9719 1.925-0.24998 5.9307-0.73072 8.9015-1.0683l5.4015-0.61378-0.6129 5.8641c-0.3371 3.2253-2.4303 11.689-4.6515 18.809s-4.0386 13.69-4.0386 14.6-0.5627 2.122-1.2504 2.6928c-3.6981 3.0692-50.128 17.953-67.75 21.719-0.825 0.17629-12.525 3.0388-26 6.3612s-25.625 6.2475-27 6.5003c-13.941 2.5628-59.836 15.711-79.5 22.777-29.354 10.546-67.5 31.873-67.5 37.737 0 2.9368 7.8266 18.073 12.57 24.311 12.524 16.468 35.387 29.505 61.93 35.312 12.52 2.7396 11.501 0.85219 11.494 21.275-0.0051 16.194-0.9178 24.562-2.7815 25.502-0.3921 0.19783-3.1879-0.01189-6.2129-0.46605zm-88.125-87.438c0.2565-7.8467 2.5237-18.771 5.5742-26.859 2.5543-6.772 8.4444-18.122 11.109-21.406 8.8894-10.957 12.683-14.954 19.068-20.091 13.053-10.501 28.533-18.753 59.123-31.52 6.1875-2.5822 11.25-5.0378 11.25-5.4568 0-0.755-20.13-1.5612-64.5-2.5834-42.472-0.97845-85.82-3.6401-105.39-6.4712-3.6361-0.52605-7.8843-0.96536-9.4405-0.97625-2.6634-0.01865-2.7907 0.17087-2.1692 3.2302 5.7986 28.545 10.762 44.131 19.596 61.54 11.995 23.637 20.34 34.074 38.055 47.601 7.636 5.8304 16.202 10.653 16.905 9.5163 0.3509-0.56779 0.7187-3.5036 0.8174-6.5239zm121.17-271.48c7.8999-2.5934 19.096-8.166 20.989-10.446 1.2654-1.5246 0.9917-2.0694-2.5575-5.0913-13.395-11.405-27.903-18.37-38.264-18.37-4.9741 0-15.132 1.5889-16.055 2.5112-1.4487 1.4487 2.3508 11.394 6.8259 17.868 2.7359 3.9576 5.4906 8.6766 6.1217 10.487s2.1034 3.6773 3.2721 4.1493c3.852 1.5556 13.151 1.032 19.668-1.1074zm46.496 310.19c-4.8311-0.57744-4.983-0.69718-5.8269-4.5929-1.1934-5.5091-0.1318-14.763 2.3338-20.343 2.9497-6.6758 9.8597-15.306 20.606-25.737 5.1451-4.9939 9.0531-9.3814 8.6845-9.75-1.2405-1.2405-10.928-0.68376-16.405 0.94273-2.9873 0.88714-5.4749 1.4496-5.5278 1.25s-0.8405 0.25462-1.75 1.0095c-3.2623 2.7074-1.8345-2.9458 1.8928-7.4945 4.4202-5.3943 10.371-7.3779 22.135-7.3779 8.1471 0 8.3185 0.05017 8.3185 2.4349 0 1.3392-0.5192 3.7017-1.1537 5.25s-1.2687 3.371-1.4093 4.0504c-0.565 2.7295-4.6864 8.2154-9.294 12.371-2.6792 2.4164-8.5128 7.6835-12.964 11.705-5.8197 5.2581-8.8242 8.8586-10.699 12.821-3.0665 6.4821-2.7757 7.1143 4.801 10.436 7.7677 3.4056 20.622 3.7902 31.718 0.94911 7.7573-1.9862 32.938-11.738 40.71-15.766 5.9101-3.063 4.4491-0.55728-3.5799 6.1394-20.584 17.168-46.271 24.848-72.591 21.702zm-595.8-73.522c-5.4002-1.927-6.462-3.1008-8.1939-9.0584-1.7759-6.1088-2.1108-19.512-0.4876-19.512 0.5824 0 0.7211-0.5625 0.308-1.25-0.5143-0.85609-0.22-0.81938 0.9338 0.11649 0.9267 0.75157 2.1451 3.2266 2.7077 5.5 3.0254 12.226 3.456 12.823 10.118 14.024 4.4711 0.80603 7.8936-0.42115 11.24-4.0304 1.4096-1.5201 2.9041-2.4225 3.3213-2.0053 0.8377 0.83768-5.147 12.614-7.9771 15.697-2.0928 2.2796-6.5015 2.4709-11.97 0.51935zm156.03-23.321c-0.8459-0.9625-2.5425-4.9-3.7702-8.75-5.7912-18.16-9.7268-26.212-13.904-28.448-1.459-0.78083-2.4443-0.46015-4.5324 1.475-2.9747 2.7568-8.5843 3.3596-10.441 1.1219-0.6166-0.74299-1.3963-3.3588-1.7327-5.8128-0.8157-5.9512 2.54-13.839 5.884-13.831 4.3608 0.01093 9.833 2.1504 13.311 5.2043 4.2289 3.713 6.4893 7.9521 11.035 20.694 3.7295 10.454 5.3708 14.096 6.3538 14.096 0.6842 0 2.329-11.365 3.9797-27.5 1.2884-12.593 2.3115-16.187 6.0948-21.41 3.6119-4.986 6.1955-6.132 10.929-4.8474 4.6895 1.2727 6.8553 3.3514 7.594 7.289 1.1753 6.2649-3.3579 9.6099-8.1309 5.9998-1.0676-0.8075-3.1683-1.4825-4.6681-1.5-5.0616-0.05903-7.5314 6.6404-10.276 27.875-1.3971 10.808-5.1982 30.093-5.9314 30.093-0.1405 0-0.9475-0.7875-1.7934-1.75zm-162.77-19.096c0-2.6828 8.2051-22.154 9.3357-22.154 0.7805 0-1.2295 7.6616-3.4612 13.194-1.1774 2.9185-2.4299 6.6227-2.7833 8.2316-0.8894 4.0487-3.0912 4.5677-3.0912 0.72867zm-19.653-56.249c-6.47-1.0809-15.17-4.3044-19.411-7.1924-5.2887-3.601-8.8351-8.8678-10.949-16.26-2.3128-8.0872-2.4896-13.974-0.6297-20.958 1.4835-5.57 5.4564-15.028 6.0487-14.399 0.2096 0.2225-0.2865 3.5545-1.1025 7.4045-1.8314 8.641-1.1639 17.69 1.7644 23.92 3.9834 8.4742 12.901 13.795 26.387 15.745 7.4804 1.0816 10.319 1.0241 20.177-0.40832 21.247-3.0876 46.108-13.65 56.434-23.975 2.9761-2.9761 3.0494-3.2246 1.3238-4.4864-1.7958-1.3131-7.469-3.1114-12.389-3.9268-11.224-1.8604-23.644-5.0226-25.349-6.4539-2.9426-2.47 5.3546-11.518 14.373-15.673 7.8112-3.5992 14.732-9.4119 16.638-13.974 1.6611-3.9755 1.1044-5.2667-2.2706-5.2667-1.3699 0-3.9308-0.72764-5.691-1.617-6.8078-3.4396-10.116-8.1237-13.179-18.663-1.8947-6.5173-3.2244-7.0227-10.655-4.0497-6.9637 2.7863-10.898 8.0734-15.498 20.83-3.0287 8.3975-7.5494 16.086-10.747 18.277-2.8772 1.9714-3.6836 2.1028-6.6961 1.0908-4.8841-1.6408-6.4662-3.3093-8.957-9.4462-1.2102-2.9816-2.4979-5.4212-2.8617-5.4212-1.2152 0-5.2861 3.2261-8.6843 6.882l-3.3628 3.618 3.4704-9.7908c1.9087-5.3849 3.4773-11.01 3.4857-12.5 0.0313-5.5338 1.5309-5.1162 3.9304 1.0944 3.425 8.8648 5.1585 11.656 9.3444 15.043 3.4546 2.7961 3.8782 2.9009 6.3606 1.5743 3.8998-2.0843 9.4058-10.128 14.321-20.921 5.8595-12.866 8.2325-16.393 13.79-20.494 5.3683-3.9617 9.9748-5.5983 12.361-4.3918 0.8927 0.45134 2.1605 2.9729 2.8174 5.6034s2.3343 7.3344 3.7277 10.453c2.2248 4.9796 3.1222 5.9235 7.368 7.75 8.4334 3.628 9.2449 3.0061 10.987-8.4202 1.0774-7.0663 0.7283-42.378-0.439-44.404-0.4719-0.81934-1.6423-21.966-1.7108-30.912-0.0649-8.4616-1.1432-9.5701-6.5024-6.684-3.359 1.8089-14.077 12.618-17.871 18.023-1.1 1.5671-2.9359 4.0031-4.0798 5.4133s-2.3673 3.3515-2.7187 4.314-1.1029 1.75-1.6701 1.75-1.0314 0.44486-1.0314 0.98857-0.6472 1.7812-1.4382 2.75-3.4905 4.3179-5.9988 7.4424c-5.9745 7.4424-9.8856 10.169-14.348 10.001-5.4862-0.20625-9.7818-5.3115-11.883-14.123l-0.6102-2.5584 2.3044 2.8677c1.2675 1.5772 3.6585 3.4371 5.3135 4.1329 2.6843 1.1287 3.5027 0.99445 7.5848-1.2442 7.2998-4.0033 10.691-6.8965 15.279-13.037 4.4609-5.9695 5.1538-7.0797 10.122-16.22 7.3206-13.467 16.138-21.965 23.785-22.923 0.3358-0.04208 0.8492-5.139 1.1409-11.327 0.5572-11.818 1.7648-16.75 4.1014-16.75 2.6839 0 3.9268 3.0884 4.5351 11.269l0.6121 8.2313 11 0.08704c10.561 0.08357 17.135 1.5264 21.201 4.653 0.8008 0.61571 2.7023-0.10941 5.7055-2.1757 6.4903-4.4654 7.5936-6.4805 7.5936-13.87 0-5.6963-0.5226-7.3562-5.0056-15.899-8.3699-15.95-12.037-31.297-8.0651-33.752 1.5386-0.95089 4.1708 4.4531 5.2422 10.763 1.1643 6.8558 3.2648 10.326 4.423 7.308 0.6318-1.6464 0.1249-22.703-1.2215-50.744-0.7525-15.671 0.1214-18.115 4.0693-11.378 5.2078 8.8865 6.4915 15.82 8.0547 43.508 0.295 5.225 0.812 12.538 1.1489 16.25 0.5769 6.3578 0.7568 6.75 3.0971 6.75 4.3127 0 10.087-3.9828 11.486-7.9226 1.8336-5.1627 1.2819-20.818-1.1536-32.735-2.4091-11.788-2.6222-15.685-0.8258-15.108 2.3469 0.75415 7.2543 10.34 9.117 17.809 4.7708 19.129 7.8887 26.722 11.792 28.718 5.5459 2.8358 7.8452 3.2018 12.852 2.0461 6.5327-1.5079 6.5008-2.7001-0.4564-17.066-10.051-20.753-12.304-32.761-7.974-42.493 1.8206-4.092 2.0227-4.2264 5.405-3.5931 1.9325 0.36185 5.0887 1.3096 7.0137 2.1061 4.0794 1.6879 16.988 10.077 17.026 11.065 0.0141 0.37026 3.2766 4.0894 7.25 8.2648 11.482 12.065 19.12 28.505 23.836 51.304 1.5887 7.6796 2.1043 13.943 2.1486 26.104 0.0535 14.704-1.3729 28.986-3.0665 30.704-0.3816 0.38709-0.549-4.7879-0.3719-11.5 0.3389-12.839-0.808-25.864-3.4519-39.204-1.9138-9.6555-1.8596-9.503-7.8143-22-7.8007-16.371-15.527-26.737-26.659-35.766-2.5317-2.0535-4.9712-3.7336-5.4213-3.7336s-1.5287-0.63994-2.397-1.4221c-1.9336-1.7418-7.0787-3.1292-7.0787-1.9088 0 0.48725 1.7866 6.6126 3.9703 13.612s4.7141 16.397 5.6232 20.884c1.7463 8.6183 1.4512 17.871-0.6508 20.404-0.6532 0.78701-0.8408 1.4309-0.4169 1.4309 1.2672 0-5.4003 5.993-6.7667 6.0822-0.6925 0.04523-2.5412 0.29159-4.1082 0.54747-4.2468 0.69351-12.314-2.3412-14.501-5.4553-1.0332-1.4709-2.48-4.3619-3.2152-6.4244s-1.6151-3.75-1.9554-3.75c-0.7299 0-4.9794 4.7598-4.9794 5.5774 0 0.30922-1.35 2.5244-3 4.9226s-3 4.635-3 4.9707c0 1.4947-4.7654 6.8392-7.7341 8.674-3.4801 2.1508-3.5274 2.625-1.0676 10.699 0.8372 2.748 2.0938 3.8522 7.0529 6.1975l6.0342 2.8537 4.1073-2.1523c2.259-1.1838 4.5144-2.1727 5.0119-2.1975s1.0314-0.90831 1.1862-1.9632 1.2103-3.1742 2.3454-4.7095 2.0638-3.227 2.0638-3.7594 1.2092-1.9191 2.6872-3.0817c2.1942-1.726 2.8305-1.8578 3.4681-0.7183 0.4295 0.7675 0.2717 2.7447-0.3508 4.3937-1.6791 4.4485-0.5676 6.0562 4.7368 6.8516 9.4532 1.4176 17.906-3.9407 20.428-12.95 0.7176-2.563 1.7625-4.9429 2.3221-5.2887s0.7154-0.14031 0.3465 0.45666-0.2135 1.3681 0.3455 1.7135 1.0163 2.7965 1.0163 5.4466c0 5.4915 1.1566 6.89 6.4023 7.7413 4.9578 0.80454 6.5057-0.7123 5.6276-5.5145-0.384-2.0996-1.0268-4.3494-1.4286-4.9994-1.013-1.639 0.2513-5.164 1.8521-5.164 2.9045 0 4.7538 6.7955 4.3922 16.14-0.3908 10.102-0.8908 10.821-7.5486 10.845-4.9572 0.01806-9.111-1.572-11.566-4.4273-1.7653-2.0532-1.7756-2.0499-5 1.591-4.1078 4.6382-8.5379 6.8516-13.714 6.8516-4.6604 0-10.756-2.2594-12.488-4.6294-1.0163-1.3899-1.4727-1.4228-3.3636-0.24187-1.2033 0.75146-2.4057 2.053-2.6722 2.8924-0.5929 1.8681-8.2151 6.9317-10.693 7.1038-0.9899 0.06875-2.2498 0.2375-2.7998 0.375s-2.8 0.30625-5 0.375l-4 0.125 0.0099 7.75c0.0091 7.1409 1.337 29.87 2.4392 41.75 0.2551 2.75 0.7358 8.15 1.0682 12 0.915 10.598 1.4266 12.5 3.3621 12.5 0.9463 0 2.1481-0.37562 2.6706-0.83472s3.2-1.6499 5.95-2.6463c20.853-7.5557 40.364-23.073 46.295-36.819 1.1478-2.6604 1.0433-2.8693-2.0908-4.1788-1.8144-0.75812-6.8776-1.4775-11.252-1.5985-11.314-0.31319-15.619-1.7233-16.63-5.4474-1.7635-6.4937 2.4387-18.634 7.6262-22.033 3.0628-2.0068 12.452-1.3721 15.628 1.0565 13.149 10.055 17.157 28.881 9.4995 44.617-5.001 10.277-14.968 18.136-35.576 28.052-16.511 7.9445-18.995 9.347-18.998 10.723-0.0014 0.76476 0.997 3.3915 2.2184 5.8373 2.5631 5.1322 7.229 8.2394 16.269 10.834 11.18 3.2092 32.345 0.74576 51.01-5.9373 6.9652-2.4938 5.4894-6.3521-5.5519-14.515-5.1826-3.8315-6.8023-5.6795-7.75-8.8428-1.6701-5.5744-1.5095-7.9244 0.8669-12.683 2.9564-5.9196 7.0802-8.2555 20.546-11.638 17.026-4.2764 20.931-5.7138 25.966-9.5573 3.5082-2.6778 4.597-3.0995 5.0378-1.9508 0.8837 2.303-4.4859 11.167-9.744 16.086l-4.7851 4.4759h-11.8c-12.02 0-18.045 0.99109-19.405 3.1924-1.232 1.9934 4.262 10.739 8.6778 13.814 10.326 7.1902 24.841 7.8131 42.036 1.804 5.5522-1.9403 11.851-4.7209 13.997-6.1791 5.6872-3.8646 5.5623-1.2991-0.2182 4.4833-9.9412 9.9444-32.51 23.614-51.861 31.41-28.815 11.61-52.276 13.269-69.314 4.9005-8.1358-3.996-12.08-8.3883-14.308-15.932-0.7329-2.4824-1.7956-4.3632-2.3615-4.1794s-2.0758 2.5506-3.3553 5.2596c-5.1676 10.94-10.006 16.836-16.096 19.615-3.9164 1.7868-4.8641 1.8715-8.2902 0.74078-3.5736-1.1794-8.7004-5.897-11.421-10.509-1.0981-1.8619-1.2123-1.8472-3.7209 0.47625-11.039 10.224-0.5143 30.788 20.886 40.808 5.666 2.6531 6.6766 2.7919 19.968 2.7425 16.254-0.06036 21.212-1.2852 46.874-11.578 30.639-12.289 28.82-11.992 30.139-4.9346 1.4303 7.6552 4.1766 7.9171 8.5436 0.81486 1.7754-2.8875 6.3949-8.5175 10.266-12.511 11.376-11.738 19.861-16.19 31.175-16.36 7.5982-0.11399 12.411 2.1275 18.311 8.5288 3.934 4.2678 4.1777 4.8631 3.6166 8.8343-1.1889 8.4149-3.5355 13.718-8.4484 19.094-5.4213 5.9318-14.891 10.941-23.919 12.653-6.2691 1.1889-23.458 1.2362-30.478 0.0839-4.4691-0.73362-5.1279-0.58418-7.1784 1.6284l-2.2578 2.4362-0.6824-4.8188c-0.7318-5.1682-3.6001-12.669-5.2297-13.676-0.5476-0.33843-5.2111 1.5927-10.363 4.2914-18.635 9.7609-41.033 15.883-60.368 16.499-20.43 0.65157-37.847-6.5987-45.483-18.933-1.9951-3.2224-5.4455-12.895-6.5427-18.342l-0.6732-3.3417-2.9959 2.8417c-1.6477 1.5629-4.5227 5.8576-6.3888 9.5437s-4.7991 8.3036-6.5178 10.261c-4.0978 4.6672-2.9787 5.9974 6.4069 7.6154 10.661 1.8379 12.695 3.1051 12.695 7.9097 0 9.8126-8.0363 21.746-20.068 29.799-12.365 8.2765-32.212 15.42-47.805 17.207-9.7835 1.1211-11.584 1.1125-18.78-0.08977zm257.43-62.445c8.36-1.6397 16.336-4.822 18.738-7.4756 0.9108-1.0065 1.9013-3.6583 2.201-5.8931 0.4488-3.3455 0.0825-4.6695-2.0737-7.4964-3.2364-4.2432-8.1343-5.9818-16.641-5.9067-19.106 0.16853-35 11.159-35 24.202 0 3.3391 0.3577 4.0302 2.25 4.3469 4.3851 0.73392 23.354-0.37019 30.525-1.7768zm-131.98-41.645c5.1662-3.1929 8.8328-12.875 4.8445-12.792-0.6287 0.01305-3.843 1.136-7.143 2.4954-6.6982 2.7592-8.8624 3.0818-8.2595 1.2309 0.4818-1.479 4.363-3.5105 11.26-5.8934l5-1.7276-0.194-29.814c-0.1066-16.398-0.4349-31.273-0.7295-33.057s-1.0029-6.1673-1.5741-9.7424c-1.0573-6.6188-2.7659-11.515-4.0181-11.515-0.8247 0-8.2072 10.216-12.58 17.408-4.3827 7.2085-7.7503 6.2094-13.543-4.018-3.5733-6.3091-5.5908-8.1861-9.6771-9.0033-2.6531-0.53062-3.2026-0.32406-3.2936 1.2381-0.2909 4.9901 0.2024 52.065 0.5593 53.375 0.2248 0.825 0.7067 9.2713 1.0707 18.769s0.7727 18.024 0.908 18.946c0.4121 2.8076 2.4187 2.6033 5.3165-0.54128 1.5151-1.6442 4.0414-4.4021 5.6139-6.1287 3.3634-3.6929 5.2435-3.4758 4.8826 0.56391-0.4013 4.4911 0.45 6.7716 3.8597 10.34 3.0307 3.1713 3.3625 3.2721 8.7051 2.6442 3.0548-0.35904 7.1012-1.6089 8.992-2.7774zm-29.798-23.765c0-1.2954 5.4521-5.2848 11.5-8.4149 2.75-1.4233 5.8637-3.2664 6.9193-4.096 1.8598-1.4613 1.8627-1.5709 0.0951-3.5241-2.3683-2.6169-8.615-2.624-14.014-0.0159-5.3304 2.5748-5.5 2.5317-5.5-1.3964 0-7.9458 15.46-14.541 24.467-10.437 2.2764 1.0372 2.4865 1.5651 1.8901 4.75-1.8185 9.7119-6.9954 16.646-15.585 20.875-6.6041 3.2512-9.7721 3.9837-9.7721 2.2595zm1.8646-36.798c0.9507-1.7762 14.238-8.2528 16.931-8.2528 0.5141 0 2.116-0.92924 3.5599-2.065 2.9202-2.2971 5.5651-1.7492 3.5099 0.7271-1.5652 1.886-7.0826 4.7032-15.09 7.7048-3.4518 1.294-7.1158 2.709-8.1423 3.1445-1.6355 0.69393-1.7306 0.5383-0.769-1.2586zm90.885-26.512c1.8546-1.4631 1.5416-2.2874-1.3729-3.6153-2.1432-0.97655-3.0574-0.91026-5 0.36254-2.9842 1.9554-3.0292 3.2711-0.1271 3.7217 4.0095 0.62251 5.2279 0.53461 6.5-0.46897zm-192.06 172.46c-2.0945-0.4291-3.6932-4.0332-3.6932-8.3258 0-3.9172 1.4771-2.9139 4.0613 2.7587 2.3106 5.0721 2.2425 6.1019-0.3681 5.567zm102.98-5.6189c-0.5915-1.5414 1.0832-2.5486 3.0799-1.8521 0.6875 0.23982 1.25 1.0735 1.25 1.8527 0 1.8438-3.6223 1.8434-4.3299-5.7e-4zm-80.963-2.28c-0.262-0.44154-0.7932-2.7178-1.1805-5.0583-0.8153-4.927-3.6644-7.499-7.297-6.5873-2.0876 0.52396-2.3586 0.29086-2.0661-1.7771 0.5093-3.6015 5.9096-3.8741 8.6149-0.43487 1.1052 1.4051 2.2611 2.5547 2.5687 2.5547s1.3225-1.6087 2.2555-3.5749c1.7836-3.7587 5.667-6.9946 7.2328-6.0269 0.5078 0.31384 1.1486 1.4322 1.4239 2.4852 0.3859 1.4755-0.1473 2.0442-2.3249 2.4797-3.5042 0.70085-4.8058 3.0458-5.7205 10.306-0.6456 5.1244-2.2652 7.7261-3.5068 5.6334zm23.219-1.9965c-0.5633-1.4816-0.8866-4.0691-0.7185-5.75l0.3057-3.0563 2.2395 3.5c1.2317 1.925 2.2412 4.5125 2.2432 5.75 0.0053 3.1658-2.8144 2.8584-4.0699-0.44374zm145.74-3.5563c-0.3171-2.8875-0.8747-7.3289-1.2392-9.8697-0.4582-3.1941-0.284-4.8537 0.5645-5.3781 2.0999-1.2978 3.0015 1.7358 2.377 7.9981-0.5045 5.0582-0.2868 6.3851 1.3862 8.4513 2.0819 2.571 3.2003 2.5275 13.99-0.54426 1.2689-0.36124 2.25-0.20099 2.25 0.36752 0 1.7546-7.8332 4.2252-13.396 4.2252h-5.356l-0.5765-5.25zm497.97-26.37c-2.1024-12.426-5.915-21.353-11.328-26.524-3.5872-3.4265-11.33-8.0252-13.041-7.7456-3.4182 0.55838-3.8745-1.4108-2.0532-8.8604 0.9615-3.9331 1.2854-4.25 4.3439-4.25 6.8149 0 12.88 4.121 16.541 11.239 1.0576 2.0562 3.2556 8.9074 4.8846 15.225 3.2232 12.501 5.4261 18.537 6.7656 18.537 0.8201 0 3.724-10.176 4.7084-16.5 0.2569-1.65 1.168-7.6798 2.0247-13.4 1.1583-7.7337 2.3847-11.962 4.7841-16.496 3.5118-6.6354 4.5091-7.1638 11.534-6.1104 8.1838 1.2272 13.327 8.6492 10.132 14.62-1.2743 2.381-4.0191 1.7997-8.2659-1.7506-9.0113-7.5335-16.038 2.7238-18.247 26.637-0.6823 7.3872-3.7505 18.813-5.6519 21.049-0.7011 0.82418-2.191 2.2581-3.311 3.1864-2.0123 1.6679-2.0576 1.563-3.8203-8.8558zm-686.08 4.5259c1.1332-1.8337 44.231-20.449 45.17-19.51 1.8519 1.8519-8.5868 7.0747-30.907 15.464-14.75 5.544-15.282 5.6947-14.263 4.0466zm124.77-14.459c-1.7453-0.76453-3.8335-2.3325-4.6404-3.4845-1.2882-1.8392-1.2886-2.4519-0.0033-5.0284 1.6384-3.2843 2.6085-3.4396 11.981-1.9184 7.8482 1.2738 11.148 0.17239 11.983-3.999 0.6694-3.3472 1.8885-3.6547 6.6354-1.6734 1.7698 0.73869 4.9054 1.6591 6.9679 2.0453 4.1233 0.77214 4.8593 2.7626 2.2818 6.1705-0.8075 1.0676-1.4825 2.735-1.5 3.7054-0.0258 1.4325-0.643 1.6612-3.2818 1.2162-1.7875-0.30144-4.6-1.1732-6.25-1.9372s-4.2331-1.6964-5.7402-2.0721c-2.524-0.62917-2.8958-0.31977-4.7144 3.9229-1.9192 4.4772-2.0941 4.6036-6.2599 4.5244-2.357-0.04487-5.7136-0.7071-7.459-1.4716zm63.611-8.8642c0.7904-0.95627 3.4904-2.7777 6-4.0476 6.9893-3.5369 30.099-11.683 31.934-11.257 2.1094 0.48947-5.7749 4.0562-22.372 10.121-7.15 2.6126-13.9 5.239-15 5.8364-1.8211 0.98896-1.8714 0.93058-0.5628-0.65253zm197.56-25.211c4.4-4.1419 12.725-10.692 18.5-14.555 17.696-11.838 32.854-18.664 102.83-46.307 5.131-2.0269 9.5768-3.4376 9.8796-3.1348s-2.3203 3.4044-5.8291 6.8925c-7.2572 7.2143-17.108 12.502-37.809 20.296-13.572 5.1096-37.217 16.06-71.943 33.318-12.305 6.1152-22.655 11.097-23 11.07s2.9723-3.4375 7.3723-7.5795zm-377.57-8.1218c-0.2547-6.091 0.3392-16.903 0.9926-18.071 0.45-0.80407 1.02 1.8362 1.3562 6.2822 0.3201 4.2318 1.2614 8.709 2.1002 9.9891 1.7503 2.6714 1.2451 3.5492-2.0425 3.5492-1.5277 0-2.3586-0.60424-2.4065-1.75zm180.66-2.3267c-1.4239-1.6922-2.5889-3.4577-2.5889-3.9233 0-2.0736-5.3409-7-7.5889-7-2.9672 0-3.1284-1.5458-0.318-3.0498 4.1284-2.2094 8.9069 1.3614 8.9069 6.6559 0 3.0536 2.0177 0.14094 3.5473-5.1208 0.8655-2.9771 2.3948-6.4272 3.3985-7.6667 1.5616-1.9285 2.0576-2.0606 3.4373-0.91555 1.4579 1.2099 1.3372 1.6515-1.2596 4.6091-3.2348 3.6842-5.6535 12.088-4.762 16.545 0.7381 3.6906 0.4333 3.6759-2.7726-0.13415zm-154.26-10.471c0-2.5523 11.332-10.498 14.867-10.425 1.3345 0.02762-2.7032 3.8255-9.6004 9.0301-4.4438 3.3534-5.2666 3.5713-5.2666 1.395zm19.679-17.907c-1.1749-4.1964-1.0796-4.6697 2.1092-10.47 1.893-3.4432 4.0213-6.075 4.9128-6.075 2.5828 0 8.004 6.4161 9.3917 11.115 1.5155 5.1317 0.3283 10.388-2.1329 9.4436-3.468-1.3308-9.1792-1.6906-11.039-0.69548-1.8167 0.97229-2.1309 0.65076-3.2422-3.3184zm13.987-0.96337c0-2.7904-1.2886-4.6796-4.2289-6.2002-2.833-1.465-7.7931-1.2171-7.7528 0.38741 0.0248 0.98629 9.1593 7.0867 10.732 7.1671 0.6875 0.03513 1.25-0.57433 1.25-1.3543zm87-13.944c0-0.87557 1.0682-2.2919 2.3738-3.1473 2.9605-1.9398 22.591-9.4664 24.626-9.4421 3.2253 0.0385-3.1836 3.8155-12.718 7.495-5.3802 2.0764-10.795 4.4303-12.032 5.2308-2.0007 1.2942-2.25 1.2791-2.25-0.1364zm62.641-9.1453c1.0038-2.6157 30.592-14.264 33.611-13.231 1.5505 0.53032-6.7343 4.7632-14.752 7.5371-3.3 1.1417-9.0032 3.1766-12.674 4.5219-4.4177 1.6192-6.5086 2.0154-6.1851 1.1723zm-153.67-1.5422c-0.6033-1.1272-0.9549-3.2647-0.7815-4.75 0.3102-2.6561 0.3606-2.631 3.0617 1.5296 3.2746 5.0438 3.3081 5.2699 0.7814 5.2699-1.0806 0-2.4583-0.92225-3.0616-2.0494zm-41.732-1.9351c-1.6125-2.5819-1.5895-2.6912 0.6889-3.287 1.2168-0.31819 2.7604 0.37824 4.1744 1.8834 1.234 1.3135 2.0527 2.4252 1.8193 2.4705-4.6165 0.89466-5.5508 0.74551-6.6826-1.0668zm130.82-11.891c-0.5865-1.096-1.0051-4.1597-0.9302-6.8084s0.3133-3.6907 0.5299-2.3157c1.0174 6.4593 1.2781 6.8678 4.5871 7.1869 4.3699 0.42143 4.4184 3.1996 0.0632 3.6215-2.3572 0.22836-3.4604-0.20881-4.25-1.6843zm320.93 0.49747c0-0.20812 2.5875-2.3323 5.75-4.7204s7.116-5.4803 8.7855-6.8716 4.7877-3.8796 6.9292-5.5296 6.1755-4.8104 8.9645-7.0232 10.842-8.5128 17.895-14c22.575-17.563 24.111-18.807 35.741-28.941 18.268-15.919 36.289-35.287 45.812-49.238 5.9015-8.6458 5.4996-10.923-2.8768-16.298-2.7845-1.7868-5.4987-4.0632-6.0314-5.0586-2.3651-4.4193-0.3315-18.724 3.6458-25.645 4.5068-7.8425 9.134-9.2119 14.678-4.3441 5.384 4.7272 6.8246 12.019 4.5501 23.031l-1.1574 5.6035 4.9074 7.25c7.3803 10.904 9.3402 14.522 9.6077 17.739 0.3005 3.6143-1.0274 10.425-2.0326 10.425-0.408 0-2.4827-3.0375-4.6105-6.75-4.3419-7.5754-8.4243-13.25-9.5324-13.25-0.4058 0-2.7149 2.7536-5.1313 6.1191s-4.85 6.628-5.4079 7.25-2.5709 3.1559-4.4733 5.6309c-16.017 20.838-43.527 48.7-63.512 64.325-3.3 2.58-6.6478 5.2499-7.4396 5.933-3.765 3.2483-29.588 20.742-30.618 20.742-0.3167 0-2.0083 1.0536-3.7591 2.3413-3.3923 2.495-19.22 11.659-20.137 11.659-0.3007 0-0.5466-0.17028-0.5466-0.37839zm140.88-143.87c-0.239-4.9527-3.1603-11.508-6.2292-13.978-2.6562-2.1378-7.9762-2.285-9.651-0.26707-1.678 2.0219-0.7856 10.848 1.3087 12.942 2.1902 2.1902 9.6708 5.5038 12.486 5.5308 2.0632 0.01978 2.2701-0.39979 2.0854-4.228zm45.124 142.56c-5.804-2.0594-12.28-8.9315-13.667-14.503-1.6986-6.8222-1.4708-9.749 1.227-15.761 1.514-3.3736 3.1339-5.7525 3.5999-5.2866s1.3114 4.6482 1.8788 9.2938c1.4022 11.481 2.5721 14.694 5.9952 16.464 5.1408 2.6584 13.773 1.4574 16.578-2.3067 1.1175-1.4994 1.2343-1.3402 0.9455 1.2893-0.1812 1.65-0.3808 3.5279-0.4435 4.1731s-1.4986 2.5577-3.1909 4.25c-2.4959 2.4958-3.8651 3.062-7.25 2.998-2.2952-0.04342-4.8481-0.31845-5.6731-0.61117zm-443.38-8.1076c-0.8807-1.4249 1.1289-3.5107 2.7741-2.8794 2.2596 0.86709 1.9997 3.6771-0.3401 3.6771-1.0675 0-2.1629-0.35899-2.434-0.79775zm196.76-1.1154c-8.4723-3.8474-12.612-13.886-14.344-34.777-0.5837-7.0452-1.2922-14.53-1.5745-16.633-0.3045-2.2691-0.1296-3.5866 0.4302-3.2406 1.3814 0.85376 4.8795 13.193 5.5462 19.564 1.737 16.598 4.0925 21.227 11.966 23.516 9.4392 2.744 15.826 0.08374 17.185-7.1578 0.9929-5.2923-0.1689-19.358-2.5371-30.718-2.2333-10.713-2.6184-16.106-1.0822-15.156 2.3613 1.4593 5.1927 10.066 7.5155 22.844 0.8826 4.8549 2.6399 11.168 3.9053 14.029 1.8845 4.2612 3.0712 5.5497 6.5601 7.123 6.4113 2.8911 10.496 2.5323 14.283-1.2547l3.1754-3.1754-6.6658-13.275c-7.2587-14.455-8.7633-18.922-8.6822-25.775 0.0459-3.8808 0.2171-4.2404 1.2444-2.613 0.6551 1.0378 2.6945 4.1238 4.5318 6.8577 5.2263 7.7764 9.9389 18.378 11.712 26.346 1.4926 6.7089 1.4938 7.7381 0.0158 12.822-1.7273 5.9418-7.0202 12.16-11.255 13.223-3.7358 0.93763-8.7681-0.45895-13.186-3.6594-2.2602-1.6373-4.5509-2.9768-5.0906-2.9768s-2.6819 2.5702-4.7607 5.7115c-4.0279 6.087-9.2317 10.302-12.673 10.266-1.1562-0.01208-3.9544-0.8631-6.2182-1.8912zm-378.47-2.4283c-3.8196-5.195-8.9129-12.676-8.9129-13.091 0-0.24906 0.9704-0.26595 2.1565-0.03753 3.3197 0.63931 6.7556 4.4297 7.9135 8.73 1.4089 5.2321 0.8942 7.1884-1.1571 4.3984zm211.84 0.09142-2.25-2.25 2.3779-0.33632c2.6693-0.37752 5.72 2.0599 4.6814 3.7404-1.0187 1.6483-2.3191 1.3362-4.8093-1.154zm-207.75-18.75c0-1.5556 0.6666-2 3-2 3.5743 0 4.1231 2.4658 0.75 3.3697-3.4147 0.91509-3.75 0.79259-3.75-1.3697zm12-14.152v-6.2223l2.8473 2.7279c1.566 1.5004 4.1535 2.822 5.75 2.9371l2.9027 0.20917-0.3156-5.8495c-0.3645-6.756 0.8161-6.8344 3.3414-0.22202 1.3961 3.6557 1.4818 5.0183 0.5024 7.9861-1.18 3.5754-1.1849 3.5778-6.001 2.9913-2.827-0.34432-5.6898-0.12155-6.9236 0.53876-2.0334 1.0882-2.1036 0.9181-2.1036-5.0965zm-29.429 2.5805c-0.8643-0.86428-1.5714-2.2278-1.5714-3.0299 0-1.1135 0.7003-0.94076 2.9607 0.73046 1.6284 1.2039 2.7268 2.5674 2.441 3.0299-0.7824 1.266-2.0816 1.0182-3.8303-0.73046zm85.496-1.3021c-0.5873-1.0973-1.0677-3.228-1.0677-4.7351v-2.7401l2.5416 2.3877c2.5653 2.41 2.9779 5.9687 0.7761 6.6934-0.6503 0.214-1.6628-0.50867-2.25-1.6059zm548.92-4.5809c1.0505-4.6579 6.8878-17.001 7.6701-16.219 0.3439 0.34384 0.1744 1.1985-0.3766 1.8993s-1.28 2.7421-1.6199 4.5363c-0.7947 4.1937-4.6761 13.238-5.6812 13.238-0.4243 0-0.4209-1.5545 0.0076-3.4544zm-566.49-4.4996c-6.4243-2.6573-11.678-14.659-12.276-28.046-0.2334-5.225 0.03-11.075 0.5855-13 1.0091-3.4977 1.0098-3.4965 1.1 1.6776 0.2441 14.014 3.5421 26.775 7.9351 30.704 1.7882 1.5994 2.5207 1.7052 4.8795 0.70454 5.8496-2.4813 7.9011-5.359 10.102-14.17 1.1562-4.6292 2.5924-12.242 3.1916-16.917 1.2366-9.6478 4.8689-18.071 9.0884-21.076 3.6239-2.5805 3.8939-2.4758 3.8939 1.5105 0 4.8432-1.1784 7.326-6.2969 13.267-4.2145 4.8918-4.5515 5.7264-5.6522 14-2.717 20.423-4.3237 27.14-7.2399 30.271-1.9461 2.0888-5.786 2.5315-9.311 1.0735zm-62-2.0463c-0.8964-1.4505 5.1338-5.0117 19.634-11.595 7.6838-3.4886 15.235-7.2434 16.781-8.3441 2.5656-1.8269 4.0848-1.8368 4.0848-0.02657 0 1.4417-8.0354 5.9319-19.579 10.941-6.5567 2.845-13.829 6.2301-16.16 7.5223s-4.474 1.9685-4.7618 1.5028zm172.51-14.682c0.0319-2.1112 11.667-7.7459 14.658-7.0989 1.2723 0.27515 0.0027 1.3278-4.1709 3.4581-6.9943 3.5701-10.505 4.7889-10.488 3.6408zm-155.81-8.5674c1.5663-2.4347 16.186-10.66 19.046-10.716 3.4569-0.06777 1.6277 1.6383-5.3851 5.0225-3.9243 1.8938-8.5117 4.4557-10.194 5.6932s-3.4767 2.25-3.9869 2.25-0.2763-1.0125 0.5198-2.25zm297.8-1.5243c0-2.7259 5.6869-11.217 10.281-15.351 4.4418-3.9968 13.958-8.7949 29.219-14.732 5.5-2.1398 19.675-8.2703 31.5-13.623 65.57-29.683 127.76-52.782 174.29-64.74 6.4852-1.6665 12.05-2.7708 12.367-2.454s-0.4892 1.8947-1.7911 3.5065c-2.0531 2.5418-12.517 7.2717-19.001 8.589-0.7512 0.15262-2.0408 0.55978-2.8658 0.90482-0.825 0.34503-13.65 4.8763-28.5 10.069-42.423 14.836-80.422 29.46-117 45.029-16.73 7.1208-73.86 34.827-79.5 38.555-1.375 0.90884-3.9625 2.6491-5.75 3.8672-3.0137 2.0538-3.25 2.0814-3.25 0.38062zm-66-24.152c0-0.54795 1.9125-3.3763 4.25-6.2852 12.881-16.03 18.125-24.796 22.284-37.252 2.175-6.5143 2.5951-9.3634 2.3091-15.661-0.3213-7.0759-0.6734-8.17-4.3563-13.537-3.8696-5.6392-4.1738-5.8496-8.8928-6.1497-6.2057-0.39469-10.07 1.2101-12.471 5.1784-3.6344 6.0081-3.6327 7.5145 0.0104 9.0463 1.8036 0.75833 4.4239 1.1773 5.823 0.93103 4.0806-0.71826 10.044-5.1226 10.044-7.4182 0-1.1246 0.45-1.7667 1-1.4268 1.4755 0.91192 1.2148 8.1865-0.405 11.3-3.3584 6.4547-11.03 10.634-17.592 9.5848-4.3833-0.70092-4.0677 0.1223-4.5558-11.884-0.4181-10.285 4.7834-22.984 11.112-27.131 1.3776-0.90264 4.6761-1.6339 7.5665-1.6775 4.7485-0.07164 5.4033 0.22188 8.9303 4.003 5.2607 5.6398 6.4577 10.425 6.3292 25.305-0.0911 10.539-0.5871 14.304-3.1627 24-1.6801 6.325-2.8685 11.687-2.6408 11.915 0.8691 0.87047 15.297-9.9021 28.824-21.521 14.789-12.703 29.384-27.399 39.469-39.741 8.1923-10.026 19.125-26.311 19.125-28.489 0-2.6586-3.0564-5.464-10.469-9.6093-8.3952-4.6948-9.013-6.18-7.109-17.089 2.3256-13.324 5.5907-17.648 14.219-18.83 5.4745-0.75037 5.8747-0.37267 6.6637 6.2898 0.5339 4.5074 2.144 9.7032 10.201 32.916 3.7488 10.801 5.7291 19.158 4.5399 19.158-0.9558 0-4.0853-3.6601-7.4814-8.75-3.2876-4.927-5.4206-5.343-7.66-1.4937l-6.5239 11.244c-8.4734 14.616-19.991 28.774-37.667 46.301-9.3192 9.2406-17.184 16.561-17.477 16.268s-1.2536 0.27185-2.1344 1.2554c-2.6697 2.981-16.971 14.433-28.102 22.502-5.775 4.1867-11.213 8.301-12.084 9.1428s-2.0302 1.5307-2.5757 1.5307-2.0827 1.1663-3.4161 2.5918c-2.9424 3.1457-5.9243 4.8985-5.9243 3.4823zm116.19-135.32c1.325-8.9299-3.218-15.736-10.51-15.745-5.5777-0.00726-7.6842 1.4564-7.6842 5.3391 0 4.7592 1.9014 6.6849 9.618 9.7406 8.5623 3.3907 8.1768 3.3608 8.5767 0.66536zm-324.19 116.32c0-2.2217 3.3326-2.9562 4.5411-1.0009 0.7944 1.2853 0.5986 1.4884-2.2911 2.3766-1.8308 0.56276-2.25 0.30644-2.25-1.3758zm38.75-2.1355c-2.0625-1.0888-3.75-2.4189-3.75-2.9558 0-1.7224 3.4987-1.0424 5.2679 1.0239 0.9419 1.1 2.6169 2 3.7223 2s2.0098 0.45 2.0098 1c0 1.563-3.1432 1.1-7.25-1.0681zm3-9.2324c-5.1279-3.225-5.9637-5.1795-2.6629-6.2271 1.4347-0.45536 2.6897-0.01559 4.015 1.4068 1.7872 1.9184 4.3098 7.136 3.6758 7.6029-0.1528 0.11259-2.4154-1.1396-5.0279-2.7826zm-19.413-12.449c-0.9397-1.5125-2.6019-3.4849-3.6937-4.383-1.938-1.5943-1.9101-1.6495 1.1741-2.3269 3.7007-0.81281 5.2247-2.54 2.2412-2.54-2.4232 0-2.7701-2.5132-0.4688-3.3963 2.1401-0.82123 2.8823-0.23515 4.7882 3.7812 1.9144 4.0344 2.1046 8.732 0.4216 10.415-1.7733 1.7732-2.5696 1.4966-4.4626-1.55zm51.218-3.16c-0.3118-0.50454 0.7856-1.516 2.4387-2.2478s3.0057-1.7318 3.0057-2.2222 2.025-0.61425 4.5-0.27501c5.3264 0.73007 5.7217-0.30037 2.0332-5.2999-1.3567-1.8389-2.2423-3.7067-1.968-4.1506 0.7312-1.1831 3.4348 0.09927 3.4348 1.6292 0 0.72032 0.507 1.4787 1.1268 1.6853s1.3489 2.687 1.6204 5.512l0.4935 5.1363-5.3704-0.1336c-2.9537-0.07348-6.5803 0.18529-8.059 0.57505s-2.9439 0.29586-3.2557-0.20868zm-29.513-5.5385c-1.1094-1.3367-0.9147-1.5515 1.4062-1.5515 1.4817 0 3.3289-0.63494 4.1049-1.411s2.3189-1.1736 3.4286-0.88337c2.4552 0.64206 2.6111-1.0439 0.4751-5.1399-0.8416-1.6138-1.292-3.5549-1.0009-4.3134 0.9281-2.4186 2.4059-0.35214 3.1111 4.3505 0.3757 2.5059 1.3017 4.7936 2.0577 5.0837 2.0948 0.80384 1.6569 1.8573-1.3754 3.3091-4.3458 2.0806-10.702 2.3701-12.207 0.55593zm-4.0427-20.45c0-2.3059 16.218-12.217 17.649-10.786 0.6729 0.67289-5.0601 4.8481-11.899 8.6657-3.1625 1.7654-5.75 2.7197-5.75 2.1206zm356.35-5.097c-5.5071-2.2216-11.264-14.039-11.319-23.234-0.0328-5.511 2.7427-13.399 4.2013-11.941 0.5281 0.52803 1.1597 5.1627 1.4037 10.299 0.2755 5.8009 0.9945 10.18 1.8976 11.559 1.9906 3.038 7.2092 3.8325 13.35 2.0324 2.767-0.81111 5.2421-1.2636 5.5002-1.0054 0.8539 0.85395-3.408 9.7535-5.5244 11.536-2.2194 1.869-6.0029 2.1693-9.5096 0.75471zm-322.62-9.7086c-1.7762-2.5872-4.2346-5.6695-5.4632-6.8496-2.4865-2.3884-2.1605-3.4931 0.8022-2.7183 2.6757 0.69972 7.8061 7.3943 8.5616 11.172 0.8585 4.2924-0.1322 3.8849-3.9006-1.6042zm85.361-4.3875c-1.7-1.0338-3.1949-3.2535-4.0562-6.0229-1.5257-4.9051-1.5689-17.146-0.0696-19.715 0.8385-1.4369 0.9792-1.3518 1.0054 0.60779 0.0541 4.0549 5.7953 14.049 9.0323 15.722 2.6785 1.3851 3.3082 1.39 5.9077 0.04572 1.6003-0.82755 3.0999-2.0754 3.3325-2.773 0.2678-0.80342 0.8609-0.44978 1.6179 0.96475 0.9894 1.8486 0.8443 2.9207-0.8423 6.2267-3.3563 6.5789-9.8991 8.6096-15.928 4.9434z"/>
 </g>
</svg>
