<?xml version="1.0" encoding="UTF-8"?>
<svg viewBox="0 0 768 768" xmlns="http://www.w3.org/2000/svg" xmlns:xlink="http://www.w3.org/1999/xlink">
 <defs>
  <clipPath id="f">
   <path d="m57.5.5h397a57,57 0 0,1 57,57v397a57,57 0 0,1 -57,57h-397a57,57 0 0,1 -57-57v-397a57,57 0 0,1 57-57"/>
  </clipPath>
  <clipPath id="g">
   <path d="m57,0h398a57,57 0 0,1 57,57v398a57,57 0 0,1 -57,57h-398a57,57 0 0,1 -57-57v-398a57,57 0 0,1 57-57"/>
  </clipPath>
  <filter id="e">
   <feGaussianBlur stdDeviation="5.12"/>
  </filter>
  <filter id="d">
   <feGaussianBlur stdDeviation="17.92"/>
  </filter>
  <linearGradient id="a">
   <stop stop-color="#dbe3db" offset="0"/>
   <stop stop-color="#dbe3db" stop-opacity="0" offset="1"/>
  </linearGradient>
  <linearGradient id="c" x1="342.19" x2="358.08" y1="705.76" y2="523.41" gradientTransform="matrix(1.1571 0 0 1.3167 -91.204 -253.99)" gradientUnits="userSpaceOnUse" xlink:href="#a"/>
  <linearGradient id="b" x1="405.26" x2="405.75" y1="118.06" y2="360.92" gradientTransform="matrix(.95303 0 0 .86647 11.575 -4.5016)" gradientUnits="userSpaceOnUse" xlink:href="#a"/>
 </defs>
&gt;
 <g transform="translate(90,90)">
  <path d="m95,56h398a57,57 0 0,1 57,57v398a57,57 0 0,1 -57,57h-398a57,57 0 0,1 -57-57v-398a57,57 0 0,1 57-57" filter="url(#d)" stroke="#a8a8a8" stroke-width="5"/>
 </g>
 <g transform="translate(128,128)" clip-path="url(#f)">
  <path d="m57,0h398a57,57 0 0,1 57,57v398a57,57 0 0,1 -57,57h-398a57,57 0 0,1 -57-57v-398a57,57 0 0,1 57-57" fill="#00f"/>
  <g fill-rule="evenodd">
   <path d="m0 2e-5h512v512h-512z" fill="#eb0013"/>
   <path d="m296.81 313.37-133.4 93.29 34.373-105.26 17.854 12.931-12.81 38.45 86.999-62.695 6.9838 23.284zm13.684-60.925 46.566 156.5-87.443-65.253 17.986-12.747 31.118 23.349-32.522-102.72 24.295 0.87444zm-55.199-31.074 163.91 0.19277-89.323 64.423-7.1464-20.854 33.212-22.235-108.35 1.5294 7.7038-23.057zm-46.343 41.839 51.901-156.73 35.721 107.75-22.043 0.27871-13.158-41.272-32.922 104.49-19.5-14.516zm26.599 56.326-132.23-97.057 111.62-0.86282-6.5112 21.059-41.429-0.16723 88.359 62.936-19.809 14.092z" fill="#0b5035"/>
  </g>
 </g>
 <g transform="translate(0,38)">
  <path d="m214.21 111.21c-45.245 0.18809-68.716 7.7308-64.094 83.553l2.8252 46.345c47.474 5.5124 56.664 18.445 104.36 21.914 68.073 4.9513 67.937 5.4209 130.56-14.384s5.8248-65.247 207.32-57.82c4.6033 0.16968 17.314-3.0527 27.462-12.15 5.5817-46.524-2.7842-69.143-66.934-68.876z" fill="url(#b)"/>
  <path d="m531.03 495.17c-31.605 19.022-27.601 31.26-37.913 32.573-94.704 12.053-145.98-0.72701-165.8-12.061-59.588-34.078-68.468-13.014-100.22-16.574-20.115-2.2551-59.245 12.984-73.388 44.344 3.4722 27.608 18.111 32.098 44.281 31.986l356.06-1.5268c69.692-0.29885 56.335-8.4926 65.543-56.039-14.772-21.671-13.157 9.109-44.224-30.717z" fill="url(#c)"/>
  <path transform="translate(128,90)" d="m57,0h398a57,57 0 0,1 57,57v398a57,57 0 0,1 -57,57h-398a57,57 0 0,1 -57-57v-398a57,57 0 0,1 57-57" clip-path="url(#g)" fill="none" filter="url(#e)" stroke="#000" stroke-width="20"/>
 </g>
</svg>
